:SAMPLES-PER-SECOND 30
:FULLY-SPECIFIED
:DEGREES
215
root  -55.5362 35.0168 29.3943 -172.008 43.2032 179.072
RightUpLeg  -6.71191 -13.4304 -3.59948
RightLeg  7.03704 -1.65071 -0.0954877
RightFoot  3.14242 0.0138279 0.0612107
RightToes  -23.7285 -0.1036 -0.206185
Spine  -2.31083 2.26507 -2.06908
Spine1  -4.56777 4.31392 -3.33758
HEad  -56.071 -13.3301 6.09968
LeftShoulder1  -1.94126e-019 -3.10601e-018 -2.51263e-017
LeftArm  -7.89046 26.2401 -78.3201
LeftForeArm  31.1351 -14.4201 -2.36346
LeftHand  -0.295992 -1.28615 5.29458
RightShoulder  -4.96962e-017 0 -2.36833e-017
RightArm  -13.4916 10.6592 79.149
RightForeArm  61.3011 24.7909 4.26723
RightHand  -0.345086 1.0867 -6.31049
LeftUpLeg  -5.88629 -4.86892 -1.51965
LeftLeg  -0.0114601 11.8116 -0.756995
LeftFoot  7.4956 -0.102137 1.72068
LeftToes  -15.4367 1.48321e-006 1.01846e-007
216
root  -55.4825 35.0192 29.4032 -172.096 42.4191 179.013
RightUpLeg  -6.19125 -13.203 -3.55714
RightLeg  6.51688 -2.60535 -0.12758
RightFoot  3.1669 0.0172268 0.00967166
RightToes  -23.4854 -0.102101 -0.204238
Spine  -2.39262 2.28903 -2.00108
Spine1  -4.70563 4.32435 -3.18529
HEad  -55.68 -14.0454 6.53097
LeftShoulder1  -1.94126e-019 -3.10601e-018 -2.51263e-017
LeftArm  -7.57614 26.4962 -78.1731
LeftForeArm  30.852 -13.3295 -2.19899
LeftHand  -0.311779 -0.716802 6.03851
RightShoulder  -4.96962e-017 0 -2.36833e-017
RightArm  -10.9038 13.6781 79.2985
RightForeArm  57.9847 27.2527 4.51963
RightHand  -0.254008 -1.02882 -6.67912
LeftUpLeg  -5.83774 -5.5264 -1.44177
LeftLeg  -0.0607446 11.7095 -0.760579
LeftFoot  7.64179 -0.104995 1.73355
LeftToes  -15.6459 1.48321e-006 1.01846e-007
217
root  -55.4465 35.0185 29.4504 -172.306 41.6005 178.888
RightUpLeg  -6.01465 -13.5549 -3.54892
RightLeg  6.69966 -3.04184 -0.158812
RightFoot  2.98644 0.0180132 -0.00483253
RightToes  -23.3764 -0.100802 -0.202612
Spine  -2.44859 2.31207 -1.95187
Spine1  -4.80455 4.34875 -3.0832
HEad  -55.6467 -14.5378 6.93084
LeftShoulder1  -1.94126e-019 -3.10601e-018 -2.51263e-017
LeftArm  -8.19542 26.6228 -77.8007
LeftForeArm  32.2229 -12.3728 -2.06639
LeftHand  -0.3124 -1.15329 5.68306
RightShoulder  -4.96962e-017 0 -2.36833e-017
RightArm  -10.3203 16.9171 80.1058
RightForeArm  56.8205 27.883 4.58357
RightHand  -0.260574 -1.302 -7.28092
LeftUpLeg  -5.94419 -6.11563 -1.38814
LeftLeg  0.219586 11.4725 -0.689465
LeftFoot  7.74443 -0.105691 1.71786
LeftToes  -15.8701 1.48321e-006 1.01846e-007
218
root  -55.3898 35.0167 29.4591 -172.548 40.8424 178.719
RightUpLeg  -5.84581 -14.0384 -3.61418
RightLeg  7.0222 -3.30505 -0.191262
RightFoot  2.65943 0.0174862 -0.00086169
RightToes  -23.1651 -0.0997964 -0.201196
Spine  -2.48514 2.34961 -1.90923
Spine1  -4.8619 4.39639 -2.99363
HEad  -55.7686 -15.0126 7.35097
LeftShoulder1  -1.94126e-019 -3.10601e-018 -2.51263e-017
LeftArm  -8.65296 26.7335 -77.4931
LeftForeArm  32.3474 -11.974 -2.02496
LeftHand  -0.322464 -1.01307 5.97871
RightShoulder  -4.96962e-017 0 -2.36833e-017
RightArm  -9.63573 19.7719 81.2118
RightForeArm  56.2869 28.3895 4.73082
RightHand  -0.299032 -1.03084 -7.89009
LeftUpLeg  -5.90498 -6.78619 -1.39647
LeftLeg  0.362846 11.3804 -0.65566
LeftFoot  7.80933 -0.107175 1.71414
LeftToes  -15.9741 1.48321e-006 1.01846e-007
219
root  -55.3223 35.0159 29.4676 -172.836 40.1315 178.585
RightUpLeg  -5.90357 -15.6707 -3.70064
RightLeg  7.93734 -2.36913 -0.174859
RightFoot  2.09805 0.0130964 0.0580225
RightToes  -22.6731 -0.0990003 -0.199741
Spine  -2.4765 2.43428 -1.84291
Spine1  -4.84149 4.55429 -2.86676
HEad  -55.7588 -15.4839 7.757
LeftShoulder1  -1.94126e-019 -3.10601e-018 -2.51263e-017
LeftArm  -9.10173 26.5965 -77.247
LeftForeArm  32.3612 -11.6373 -1.98689
LeftHand  -0.322196 -0.78458 6.17488
RightShoulder  -4.96962e-017 0 -2.36833e-017
RightArm  -8.48757 22.1494 82.4325
RightForeArm  55.6676 28.569 4.73783
RightHand  -0.287758 -1.04231 -7.60647
LeftUpLeg  -5.74288 -7.31204 -1.38716
LeftLeg  0.434579 11.1924 -0.631009
LeftFoot  7.84695 -0.107388 1.69182
LeftToes  -16.0218 1.48321e-006 1.01846e-007
220
root  -55.2692 35.0182 29.4804 -173.027 39.2683 178.481
RightUpLeg  -5.453 -15.1595 -3.69867
RightLeg  7.71981 -3.69947 -0.259355
RightFoot  2.07494 0.0157466 0.0160244
RightToes  -22.678 -0.0982673 -0.197998
Spine  -2.45937 2.50135 -1.76086
Spine1  -4.80588 4.67816 -2.72342
HEad  -55.7286 -15.7623 8.21537
LeftShoulder1  -1.94126e-019 -3.10601e-018 -2.51263e-017
LeftArm  -9.04561 26.3561 -77.0453
LeftForeArm  32.1718 -11.873 -2.03903
LeftHand  -0.292679 -0.900198 5.52414
RightShoulder  -4.96962e-017 0 -2.36833e-017
RightArm  -6.80985 23.8216 83.5674
RightForeArm  54.5142 29.0494 4.73202
RightHand  -0.262418 -1.13269 -7.06126
LeftUpLeg  -5.72704 -8.11759 -1.34895
LeftLeg  0.564122 11.1539 -0.603753
LeftFoot  7.93863 -0.10946 1.70094
LeftToes  -16.1916 1.48321e-006 1.01846e-007
221
root  -55.2202 35.02 29.4916 -173.288 38.2982 178.279
RightUpLeg  -5.25008 -15.8813 -3.81855
RightLeg  8.04623 -3.91107 -0.296602
RightFoot  1.77681 0.0145306 0.0289975
RightToes  -22.3806 -0.0975948 -0.195602
Spine  -2.43507 2.54697 -1.70941
Spine1  -4.76022 4.76891 -2.63206
HEad  -55.5123 -15.8322 8.5076
LeftShoulder1  -1.94126e-019 -3.10601e-018 -2.51263e-017
LeftArm  -8.88433 26.1584 -76.8813
LeftForeArm  32.1825 -12.6293 -2.16736
LeftHand  -0.287787 -0.896121 5.4366
RightShoulder  -4.96962e-017 0 -2.36833e-017
RightArm  -5.37392 24.9221 84.7028
RightForeArm  53.5615 29.4046 4.6766
RightHand  -0.212171 -1.18769 -5.74641
LeftUpLeg  -5.73931 -9.45241 -1.37018
LeftLeg  0.727992 11.5134 -0.590173
LeftFoot  8.09102 -0.115837 1.78099
LeftToes  -16.5081 1.48321e-006 1.01846e-007
222
root  -55.1794 35.017 29.5075 -173.541 37.3041 178.163
RightUpLeg  -4.97727 -16.4166 -3.88125
RightLeg  8.31908 -4.31629 -0.348026
RightFoot  1.4963 0.0134798 0.0393393
RightToes  -21.8838 -0.0969802 -0.192932
Spine  -2.38492 2.61547 -1.64612
Spine1  -4.66452 4.90897 -2.51421
HEad  -54.9802 -15.9547 8.6826
LeftShoulder1  -1.94126e-019 -3.10601e-018 -2.51263e-017
LeftArm  -7.99675 25.9651 -76.856
LeftForeArm  30.7026 -13.9881 -2.3872
LeftHand  -0.328146 -0.523499 6.54132
RightShoulder  -4.96962e-017 0 -2.36833e-017
RightArm  -2.86362 25.3668 85.4109
RightForeArm  51.7429 30.2495 4.61171
RightHand  -0.252808 -0.566919 -6.05938
LeftUpLeg  -5.77903 -10.8282 -1.32602
LeftLeg  1.05174 11.7971 -0.538213
LeftFoot  8.05767 -0.118811 1.8135
LeftToes  -16.4878 1.48321e-006 1.01846e-007
223
root  -55.1489 35.0171 29.5448 -173.699 36.4541 177.946
RightUpLeg  -4.91868 -16.616 -3.95385
RightLeg  8.55442 -4.93976 -0.418688
RightFoot  1.2598 0.0126128 0.0467898
RightToes  -21.7641 -0.0964209 -0.190853
Spine  -2.36653 2.71176 -1.61684
Spine1  -4.63396 5.10442 -2.4715
HEad  -54.4151 -15.8473 8.79892
LeftShoulder1  -1.94126e-019 -3.10601e-018 -2.51263e-017
LeftArm  -7.85903 25.8164 -76.775
LeftForeArm  30.35 -15.6223 -2.63524
LeftHand  -0.308361 -0.589364 6.08909
RightShoulder  -4.96962e-017 0 -2.36833e-017
RightArm  -0.674695 25.483 86.0508
RightForeArm  50.5162 31.0442 4.55802
RightHand  -0.23906 -0.247397 -5.40376
LeftUpLeg  -5.96604 -11.6964 -1.36079
LeftLeg  1.24585 11.8085 -0.498958
LeftFoot  8.23772 -0.121653 1.85078
LeftToes  -16.8773 1.48321e-006 1.01846e-007
224
root  -55.1222 35.0111 29.6044 -173.776 35.7916 177.82
RightUpLeg  -4.9177 -16.482 -3.91505
RightLeg  8.73479 -5.71337 -0.502234
RightFoot  0.991455 0.0112472 0.0611051
RightToes  -21.3937 -0.0959146 -0.189462
Spine  -2.3307 2.90568 -1.59866
Spine1  -4.57091 5.49549 -2.45753
HEad  -53.8144 -16.0049 8.7303
LeftShoulder1  -1.94126e-019 -3.10601e-018 -2.51263e-017
LeftArm  -7.29567 25.5394 -76.6598
LeftForeArm  29.676 -17.5395 -2.92721
LeftHand  -0.306816 -0.644829 6.00819
RightShoulder  -4.96962e-017 0 -2.36833e-017
RightArm  1.08226 25.4145 86.3598
RightForeArm  49.4186 31.7962 4.5508
RightHand  -0.219615 -0.164382 -4.89211
LeftUpLeg  -6.22282 -11.8626 -1.32443
LeftLeg  1.56247 11.2888 -0.415267
LeftFoot  8.21836 -0.115412 1.76792
LeftToes  -17.0144 1.48321e-006 1.01846e-007
225
root  -55.1084 35.0138 29.6495 -173.778 34.8672 177.752
RightUpLeg  -4.85275 -16.9593 -3.87174
RightLeg  8.79178 -6.15149 -0.546789
RightFoot  0.865857 0.0103374 0.0686529
RightToes  -21.2833 -0.0954585 -0.188267
Spine  -2.29649 2.98848 -1.57098
Spine1  -4.50567 5.66216 -2.42792
HEad  -53.0961 -16.0938 8.55774
LeftShoulder1  -1.94126e-019 -3.10601e-018 -2.51263e-017
LeftArm  -7.48569 25.2843 -76.6691
LeftForeArm  30.128 -19.3703 -3.19197
LeftHand  -0.283041 -0.927212 5.32494
RightShoulder  -4.96962e-017 0 -2.36833e-017
RightArm  2.01193 25.1732 86.5608
RightForeArm  48.5229 32.3723 4.60487
RightHand  -0.194387 -0.800184 -4.85165
LeftUpLeg  -6.47705 -11.8059 -1.2988
LeftLeg  1.70771 10.4251 -0.357587
LeftFoot  8.32013 -0.109477 1.6572
LeftToes  -17.005 1.48321e-006 1.01846e-007
226
root  -55.0968 35.007 29.6778 -173.762 34.1618 177.693
RightUpLeg  -4.85932 -17.4677 -3.85241
RightLeg  8.93016 -6.33134 -0.578108
RightFoot  0.695746 0.00875084 0.0856216
RightToes  -21.1929 -0.09505 -0.187253
Spine  -2.24313 3.09777 -1.56123
Spine1  -4.4028 5.88312 -2.42434
HEad  -52.3063 -15.992 8.18021
LeftShoulder1  -1.94126e-019 -3.10601e-018 -2.51263e-017
LeftArm  -7.25607 25.1476 -76.6347
LeftForeArm  29.964 -21.1464 -3.42173
LeftHand  -0.257028 -1.13039 4.71107
RightShoulder  -4.96962e-017 0 -2.36833e-017
RightArm  2.48648 24.7768 86.6766
RightForeArm  47.2586 33.0935 4.75382
RightHand  -0.196877 -0.16663 -4.38557
LeftUpLeg  -6.62577 -11.9279 -1.26649
LeftLeg  1.74041 9.86086 -0.332841
LeftFoot  8.3468 -0.106416 1.57693
LeftToes  -16.9146 1.48321e-006 1.01846e-007
227
root  -55.11 35.013 29.7405 -173.771 33.2849 177.594
RightUpLeg  -4.90999 -17.9214 -3.84439
RightLeg  9.07519 -6.7361 -0.632078
RightFoot  0.589452 0.00751265 0.0973683
RightToes  -21.1026 -0.0946868 -0.186403
Spine  -2.18416 3.15885 -1.56221
Spine1  -4.29534 6.02406 -2.43204
HEad  -51.4082 -15.8309 7.64689
LeftShoulder1  -1.94126e-019 -3.10601e-018 -2.51263e-017
LeftArm  -7.12032 24.8351 -76.7451
LeftForeArm  29.7312 -22.3708 -3.5774
LeftHand  -0.235171 -1.14945 4.30918
RightShoulder  -4.96962e-017 0 -2.36833e-017
RightArm  2.45365 24.4508 86.7471
RightForeArm  46.0794 33.2538 4.83883
RightHand  -0.162786 -0.825487 -4.06475
LeftUpLeg  -6.85119 -12.6505 -1.21494
LeftLeg  1.69245 9.66831 -0.334466
LeftFoot  8.72164 -0.111307 1.61252
LeftToes  -17.4396 1.48321e-006 1.01846e-007
228
root  -55.1137 35.008 29.7987 -173.658 32.6073 177.608
RightUpLeg  -5.04179 -18.4434 -3.72614
RightLeg  9.21457 -6.89119 -0.663446
RightFoot  0.469812 0.00614566 0.110717
RightToes  -21.0659 -0.0943662 -0.185701
Spine  -2.13584 3.18404 -1.54786
Spine1  -4.19814 6.07446 -2.41318
HEad  -50.4807 -15.4857 7.07642
LeftShoulder1  -1.94126e-019 -3.10601e-018 -2.51263e-017
LeftArm  -6.97263 24.5319 -77.1047
LeftForeArm  28.0595 -23.0821 -3.75657
LeftHand  -0.330428 -1.04336 6.09739
RightShoulder  -4.96962e-017 0 -2.36833e-017
RightArm  2.29893 24.1379 86.8653
RightForeArm  45.6583 33.4503 4.907
RightHand  -0.18418 -0.575606 -4.40265
LeftUpLeg  -7.10432 -12.7079 -1.09253
LeftLeg  1.70409 9.03315 -0.31087
LeftFoot  8.82072 -0.108589 1.52851
LeftToes  -17.6415 1.48321e-006 1.01846e-007
229
root  -55.1158 35.005 29.8521 -173.568 32.0147 177.564
RightUpLeg  -5.16731 -18.8863 -3.65735
RightLeg  9.30418 -7.02359 -0.687195
RightFoot  0.369756 0.00481097 0.123371
RightToes  -21.0285 -0.0940856 -0.185131
Spine  -2.06328 3.21437 -1.55181
Spine1  -4.05637 6.14132 -2.42474
HEad  -49.817 -15.1141 6.67846
LeftShoulder1  -1.94126e-019 -3.10601e-018 -2.51263e-017
LeftArm  -7.22412 24.3048 -77.3612
LeftForeArm  28.0175 -23.4556 -3.80494
LeftHand  -0.34716 -1.00417 6.43633
RightShoulder  -4.96962e-017 0 -2.36833e-017
RightArm  2.35632 23.893 86.9496
RightForeArm  45.1366 33.6278 4.97486
RightHand  -0.189293 -0.45443 -4.42929
LeftUpLeg  -7.28777 -13.0104 -1.02136
LeftLeg  1.56119 8.81339 -0.325276
LeftFoot  9.04449 -0.110953 1.52868
LeftToes  -17.9237 1.48321e-006 1.01846e-007
